#!OML:ASF X:\für Bonn\!DataBase\2005_08_11_Bastian_Final\c3d\Bastian.ASF
:FULLY-SPECIFIED
:DEGREES
44
root -0.4565 17.3027 20.8411 -733.112 -176.369 -717.689
lowerback 8.48519 -2.96686 1.38954
upperback 5.21532 -4.3563 0.680101
thorax 0.608222 -2.37507 0.260088
lowerneck -10.7647 -6.64801 -8.63116
upperneck 13.3932 -9.21559 12.6029
head 6.8589 -3.77153 4.62329
rclavicle -1.62289e-014 5.76476e-015
rhumerus -40.8836 1.60936 -87.8608
rradius 26.9988
rwrist -6.04649
rhand -16.4436 2.4675
rfingers 7.12502
rthumb 9.77214 -27.2858
lclavicle -1.62289e-014 5.76476e-015
lhumerus -24.8141 -9.67681 92.0188
lradius 8.18613
lwrist 18.9479
lhand -14.7348 -7.32473
lfingers 7.12502
lthumb 11.4205 22.3442
rfemur 7.6395 2.29291 24.8631
rtibia 30.4383
rfoot -16.5954 -15.3563
rtoes -5.58161
lfemur 7.24852 3.72197 -15.8692
ltibia 22.7443
lfoot -9.09386 -8.94787
ltoes -8.49162
45
root -0.4747 17.3025 20.8361 -733.14 -176.588 -717.708
lowerback 8.49105 -2.97742 1.36643
upperback 5.23422 -4.37686 0.695805
thorax 0.627434 -2.38799 0.29015
lowerneck -10.7318 -6.62384 -8.62499
upperneck 13.4034 -9.18462 12.5961
head 6.8521 -3.75789 4.62444
rclavicle -2.41958e-014 1.07344e-014
rhumerus -40.8678 1.67315 -87.8236
rradius 26.9562
rwrist -6.11576
rhand -16.3876 2.48563
rfingers 7.12502
rthumb 9.82624 -27.2651
lclavicle -2.41958e-014 1.07344e-014
lhumerus -24.588 -10.1614 92.1353
lradius 8.30523
lwrist 18.6632
lhand -14.8358 -7.46517
lfingers 7.12502
lthumb 11.3231 22.2092
rfemur 7.5658 2.14314 24.6932
rtibia 30.611
rfoot -16.5649 -15.0074
rtoes -5.96059
lfemur 7.38053 3.80928 -15.9232
ltibia 22.6651
lfoot -9.11584 -8.80721
ltoes -8.18551
46
root -0.492748 17.3017 20.8311 -733.167 -176.824 -717.689
lowerback 8.47897 -2.9895 1.41728
upperback 5.26395 -4.39604 0.702281
thorax 0.661923 -2.39879 0.268047
lowerneck -10.6954 -6.59443 -8.60733
upperneck 13.3908 -9.15051 12.6209
head 6.83821 -3.73985 4.63442
rclavicle -1.98909e-014 -2.18663e-015
rhumerus -40.8198 1.60976 -87.7615
rradius 26.8904
rwrist -6.08104
rhand -16.314 2.47817
rfingers 7.12502
rthumb 9.89724 -27.2692
lclavicle -1.98909e-014 -2.18663e-015
lhumerus -24.3466 -10.659 92.2287
lradius 8.40357
lwrist 18.3459
lhand -14.8822 -7.56992
lfingers 7.12502
lthumb 11.2784 22.1069
rfemur 7.47168 1.97414 24.5514
rtibia 30.8043
rfoot -16.5772 -14.604
rtoes -6.09229
lfemur 7.51135 3.90579 -15.9304
ltibia 22.5892
lfoot -9.11916 -8.69078
ltoes -7.68047
47
root -0.508954 17.3008 20.8278 -733.189 -177.064 -717.689
lowerback 8.50521 -3.00334 1.44937
upperback 5.26931 -4.41531 0.710334
thorax 0.651498 -2.40937 0.261546
lowerneck -10.6516 -6.57005 -8.59103
upperneck 13.4052 -9.12088 12.6115
head 6.83039 -3.7265 4.63318
rclavicle -5.35569e-014 1.03368e-014
rhumerus -40.804 1.60511 -87.7033
rradius 26.8375
rwrist -6.08958
rhand -16.2938 2.54867
rfingers 7.12502
rthumb 9.91669 -27.1978
lclavicle -5.35569e-014 1.03368e-014
lhumerus -24.1581 -11.1463 92.3197
lradius 8.54432
lwrist 17.9603
lhand -14.9506 -7.63737
lfingers 7.12502
lthumb 11.2124 22.043
rfemur 7.36531 1.85369 24.4136
rtibia 31.0065
rfoot -16.5901 -14.2274
rtoes -6.29844
lfemur 7.6307 3.97186 -15.9641
ltibia 22.5158
lfoot -9.15645 -8.51981
ltoes -7.52945
48
root -0.524657 17.2995 20.8248 -733.206 -177.277 -717.689
lowerback 8.53663 -3.02846 1.51042
upperback 5.26914 -4.44608 0.696172
thorax 0.628582 -2.42422 0.2178
lowerneck -10.64 -6.54506 -8.57129
upperneck 13.4544 -9.09381 12.621
head 6.84044 -3.70979 4.63699
rclavicle -4.05645e-015 4.17448e-015
rhumerus -40.8008 1.60321 -87.6934
rradius 26.8072
rwrist -6.13357
rhand -16.292 2.59241
rfingers 7.12502
rthumb 9.91849 -27.1539
lclavicle -4.05645e-015 4.17448e-015
lhumerus -23.9613 -11.6683 92.3558
lradius 8.65888
lwrist 17.5731
lhand -14.9386 -7.72232
lfingers 7.12502
lthumb 11.224 21.9574
rfemur 7.24161 1.6823 24.2612
rtibia 31.2278
rfoot -16.5929 -13.8472
rtoes -6.45625
lfemur 7.72603 4.09746 -15.9683
ltibia 22.4593
lfoot -9.14663 -8.46918
ltoes -6.77423
49
root -0.539228 17.3001 20.8228 -733.218 -177.509 -717.688
lowerback 8.56761 -3.04802 1.53975
upperback 5.28162 -4.47456 0.709979
thorax 0.623548 -2.44012 0.219504
lowerneck -10.6432 -6.51542 -8.5815
upperneck 13.4593 -9.05489 12.6414
head 6.83959 -3.69006 4.6498
rclavicle 1.26104e-014 -7.35503e-015
rhumerus -40.7664 1.56838 -87.6316
rradius 26.7734
rwrist -6.1199
rhand -16.2983 2.64454
rfingers 7.12502
rthumb 9.91238 -27.1021
lclavicle 1.26104e-014 -7.35503e-015
lhumerus -23.6931 -12.1618 92.3954
lradius 8.72509
lwrist 17.1798
lhand -14.8992 -7.8035
lfingers 7.12502
lthumb 11.262 21.8742
rfemur 7.09832 1.54741 24.127
rtibia 31.4563
rfoot -16.5979 -13.4618
rtoes -6.48063
lfemur 7.7984 4.29169 -15.9502
ltibia 22.4316
lfoot -9.15385 -8.43993
ltoes -6.43
50
root -0.551879 17.2986 20.8209 -733.234 -177.731 -717.69
lowerback 8.61874 -3.06447 1.55573
upperback 5.29308 -4.49945 0.718788
thorax 0.60697 -2.45458 0.224614
lowerneck -10.6892 -6.49057 -8.55719
upperneck 13.5133 -9.02502 12.6315
head 6.85986 -3.67201 4.64538
rclavicle -3.93221e-015 -4.57205e-015
rhumerus -40.6976 1.50701 -87.5769
rradius 26.7084
rwrist -6.18047
rhand -16.3641 2.72865
rfingers 7.12502
rthumb 9.84891 -27.021
lclavicle -3.93221e-015 -4.57205e-015
lhumerus -23.4081 -12.6895 92.3968
lradius 8.73308
lwrist 16.7602
lhand -14.8162 -7.9274
lfingers 7.12502
lthumb 11.342 21.7459
rfemur 6.94284 1.33651 23.973
rtibia 31.7123
rfoot -16.5591 -13.0621
rtoes -6.64689
lfemur 7.86564 4.50473 -15.9151
ltibia 22.4182
lfoot -9.13707 -8.48233
ltoes -5.81713
51
root -0.564472 17.2973 20.8201 -733.26 -177.94 -717.664
lowerback 8.69303 -3.0922 1.61111
upperback 5.29624 -4.53527 0.721041
thorax 0.565692 -2.47343 0.2041
lowerneck -10.7 -6.46029 -8.4947
upperneck 13.5324 -8.99053 12.6075
head 6.85979 -3.65304 4.63092
rclavicle -2.57116e-014 1.59028e-015
rhumerus -40.6657 1.31847 -87.5019
rradius 26.668
rwrist -6.09692
rhand -16.4109 2.80485
rfingers 7.12502
rthumb 9.80371 -26.9469
lclavicle -2.57116e-014 1.59028e-015
lhumerus -23.1148 -13.231 92.3618
lradius 8.71986
lwrist 16.3937
lhand -14.7227 -7.95036
lfingers 7.12502
lthumb 11.4322 21.718
rfemur 6.77891 1.13712 23.8584
rtibia 31.9901
rfoot -16.5562 -12.6961
rtoes -6.75865
lfemur 7.921 4.71645 -15.8475
ltibia 22.4194
lfoot -9.11925 -8.52046
ltoes -5.20595
